/* XPM */
static const char * logo_128_xpm[] = {
/* columns rows colors chars-per-pixel */
"128 128 76 1 ",
"  c #003B6A",
". c #003D68",
"X c #003C69",
"o c #003D69",
"O c #003E69",
"+ c #003C6A",
"@ c #003D6A",
"# c #003D6B",
"$ c #003E6A",
"% c #004371",
"& c #004978",
"* c #004979",
"= c #104973",
"- c #104974",
"; c #20557C",
": c #20557D",
"> c #004F80",
", c #005587",
"< c #005588",
"1 c #005B8E",
"2 c #005B8F",
"3 c #006195",
"4 c #006196",
"5 c #006197",
"6 c #00679D",
"7 c #00679E",
"8 c #00689D",
"9 c #306185",
"0 c #306186",
"q c #006DA4",
"w c #006DA5",
"e c #006EA5",
"r c #0073AC",
"t c #0074AC",
"y c #0079B3",
"u c #0079B4",
"i c #007AB4",
"p c #007FBB",
"a c #406D8F",
"s c #406E8F",
"d c #507A98",
"f c #0080BB",
"g c #6086A1",
"h c #6086A2",
"j c #7092AB",
"k c #7F9DB4",
"l c #0085C2",
"z c #0086C2",
"x c #0086C3",
"c c #008BC9",
"v c #008CC9",
"b c #008CCA",
"n c #0091D1",
"m c #0092D1",
"M c #0098D8",
"N c #0098D9",
"B c #009EE0",
"V c #809EB4",
"C c #809EB5",
"Z c #90AABE",
"A c #9FB6C7",
"S c #A0B6C7",
"D c #AFC2D0",
"F c #B0C3D0",
"G c #BFCEDA",
"H c #C0CFDA",
"J c #CFDAE3",
"K c #CFDBE4",
"L c #D0DBE3",
"P c #DFE6EC",
"I c #DFE7ED",
"U c #E0E7EC",
"Y c #EFF2F5",
"T c #EFF3F6",
"R c white",
"E c None",
/* pixels */
"EEEEEEEEEEEEEEEEEEEEEEEEEEEEEEEEEEEEEEEEEEEEEEEEEEEEEEEE@XXX@@@@@@@@XXX EEEEEEEEEEEEEEEEEEEEEEEEEEEEEEEEEEEEEEEEEEEEEEEEEEEEEEEE",
"EEEEEEEEEEEEEEEEEEEEEEEEEEEEEEEEEEEEEEEEEEEEEEEEEEE@@@@@@@@@@@@@@@@@@@$ $$$$@XEEEEEEEEEEEEEEEEEEEEEEEEEEEEEEEEEEEEEEEEEEEEEEEEEE",
"EEEEEEEEEEEEEEEEEEEEEEEEEEEEEEEEEEEEEEEEEEEEEEEX@@@@@@@@@@@@@@@@@@@@@@@@$$   $$$X$EEEEEEEEEEEEEEEEEEEEEEEEEEEEEEEEEEEEEEEEEEEEEE",
"EEEEEEEEEEEEEEEEEEEEEEEEEEEEEEEEEEEEEEEEEEEE@@@@@@@@@@@@@@@@@@@@@@@@@@@@ $$$$$ $$$$$@EEEEEEEEEEEEEEEEEEEEEEEEEEEEEEEEEEEEEEEEEEE",
"EEEEEEEEEEEEEEEEEEEEEEEEEEEEEEEEEEEEEEEEE@@@@@@@@@@@@@@@@@@@@@@@@@@@@@@@$  $$$ $$$   $$$EEEEEEEEEEEEEEEEEEEEEEEEEEEEEEEEEEEEEEEE",
"EEEEEEEEEEEEEEEEEEEEEEEEEEEEEEEEEEEEEE$$@@@@@@@@@@@@@@@@@@@@@@@@@@@@@@@@$$$$ $ $ $$$$$  $$EEEEEEEEEEEEEEEEEEEEEEEEEEEEEEEEEEEEEE",
"EEEEEEEEEEEEEEEEEEEEEEEEEEEEEEEEEEEE@@$ @@@@@@@@@@@@@@@@@@@@@@@@@@@@@@@@ $$ $ $$ $$$$ $$  $@EEEEEEEEEEEEEEEEEEEEEEEEEEEEEEEEEEEE",
"EEEEEEEEEEEEEEEEEEEEEEEEEEEEEEEEEE@@@@$ @@@@@@@@@@@@@@@@@@@@@@@@@@@@@@@@ $$ $$$ $$  $$ $$$$ @@EEEEEEEEEEEEEEEEEEEEEEEEEEEEEEEEEE",
"EEEEEEEEEEEEEEEEEEEEEEEEEEEEEEEEE$$$$ $$ $$$$$$ @@@@@@@@@@@@@@@@$$$ $  $$$ $$$ $$$  $$ $ $$$$$$ EEEEEEEEEEEEEEEEEEEEEEEEEEEEEEEE",
"EEEEEEEEEEEEEEEEEEEEEEEEEEEEEEE@ $$ $$ $$$    $$@@@@@@@@@@@@@@@@  $$$$$$$ $$ $ $ $$$$ $$$$    $$@@EEEEEEEEEEEEEEEEEEEEEEEEEEEEEE",
"EEEEEEEEEEEEEEEEEEEEEEEEEEEEE@@@ $$$  $$$ $$$$ $@@@@@@@@@@@@@@@@$$ $ $$ $$  $ $$ $$$$$  $ $$$$ $@@@EEEEEEEEEEEEEEEEEEEEEEEEEEEEE",
"EEEEEEEEEEEEEEEEEEEEEEEEEEEE@@@@$$  $$$ $$ $$ $$@@@@@@@@@@@@@@@@$ $$ $$  $$$$$$ $$   $$$$$ $$ $$@@@@@EEEEEEEEEEEEEEEEEEEEEEEEEEE",
"EEEEEEEEEEEEEEEEEEEEEEEEEE@@@@@@ $$$$$$   $$$$  @@@@@@@@@@@@@@@@$$ $ $$$$$$   $$ $$$$$$   $$$$  @@@@@@EEEEEEEEEEEEEEEEEEEEEEEEEE",
"EEEEEEEEEEEEEEEEEEEEEEEEE@@@@@@@$$ $  $$$$$  $$$@@@@@@@@@@@@@@@@ $ $$$ $  $$$$$ $$ $  $$$$$  $$$@@@@@@@EEEEEEEEEEEEEEEEEEEEEEEEE",
"EEEEEEEEEEEEEEEEEEEEEEEE@@@@@@@@$ $ $$ $$$$  $$$@@@@@@@@@@@@@@@@$ $$$ $ $$ $$$$ $ $ $$ $$$$  $$$@@@@@@@@@EEEEEEEEEEEEEEEEEEEEEEE",
"EEEEEEEEEEEEEEEEEEEEEEE@@@@@@@@@$ $$$ $$  $$$$  @@@@@@@@@@@@@@@@$$$ $ $$$ $$  $$$ $$$ $$  $$$$  @@@@@@@@@@EEEEEEEEEEEEEEEEEEEEEE",
"EEEEEEEEEEEEEEEEEEEEE@@@@@@@@@@@$$  $$ $$$ $ $$$ $$$$$$ $$$ $  $ $$ $$$ @@@@@@@@@@@@@@@@$ $$$ $$@@@@@@@@@@@EEEEEEEEEEEEEEEEEEEEE",
"EEEEEEEEEEEEEEEEEEEE@@@@@@@@@@@@ $$$$ $$ $ $$$ $$$    $$  $$$$$$ $$ $ $$@@@@@@@@@@@@@@@@$ $ $$ $@@@@@@@@@@@@EEEEEEEEEEEEEEEEEEEE",
"EEEEEEEEEEEEEEEEEEE@@@@@@@@@@@@@ $$$$$  $ $$$ $ $ $$$$ $$$ $ $$ $$$$ $ $@@@@@@@@@@@@@@@@$$ $  $$@@@@@@@@@@@@@EEEEEEEEEEEEEEEEEEE",
"EEEEEEEEEEEEEEEEEE@@@@@@@@@@@@@@$$   $$$$$$ $ $$$$ $$ $$$ $$ $$ $  $$$ $@@@@@@@@@@@@@@@@ $$$$$$ @@@@@@@@@@@@@@EEEEEEEEEEEEEEEEEE",
"EEEEEEEEEEEEEEEEE@@@@@@@@@@@@@@@ $$$$$$  $$ $$ $  $$$$  $$ $ $$$$  $$$ $@@@@@@@@@@@@@@@@$$  X.@@@@@@@@@@@@@@@@@EEEEEEEEEEEEEEEEE",
"EEEEEEEEEEEEEEEEE@@@@@@@@@@@@@@@$$ $  $$ $$ $ $$$$$  $$$ $ $$$ $$$$$ $ $@@@@@@@@@@@@@@@@ $$$@.,y@@@@@@@@@@@@@@@@EEEEEEEEEEEEEEEE",
"EEEEEEEEEEEEEEEE@@@@@@@@@@@@@@@@$ $ $$ $$$$$$$  $$$  $$$$ $$$ $  $$ $ $$@@@@@@@@@@@@@@@@$$$$&yBm@@@@@@@@@@@@@@@@@EEEEEEEEEEEEEEE",
"EEEEEEEEEEEEEEE@@@@@@@@@@@@@@@@@$ $$$ $$$  $ $$$  $$$$  $$$ $ $$ $$ $$$ @@@@@@@@@@@@@@@@$$%qNNBm@@@@@@@@@@@@@@@@@@EEEEEEEEEEEEEE",
"EEEEEEEEEEEEEE@@@@@@@@@@@@@@@@@@ $$$ $$ $$$ $  $$$ $$$ $$$  $$ $$$$ @@@@@@@@@@@@@@@@@@@@%qNBBBBm@@@@@@@@@@@@@@@@@@@EEEEEEEEEEEEE",
"EEEEEEEEEEEEE@@@@@@@@@@@@@@@@@@@$$ $ $$   $$$$$$$ $$ $ $ $$$$ $$$ $$@@@@@@@@@@@@@@@@@@@6NBBBBBBm@@@@@@@@@@@@@@@@@@@EEEEEEEEEEEEE",
"EEEEEEEEEEEE@@@@@@@@@@@@@@@@@@@@$ $ $$$$$$ $ $$ $$  $ $$ $$$$$   $ $@@@@@@@@@@@@@@@@@1nBBBBBBBBm@@@@@@@@@@@@@@@@@@@@EEEEEEEEEEEE",
"EEEEEEEEEEEE@@@@@@@@@@@@@@@@@@@@$ $$$  $$ $$ $$  $$$$$$ $$   $$$$$ $@@@@@@@@@@@@@@@<lBBBBBBBBBBm@@@@@@@@@@@@@@@@@@@@@EEEEEEEEEEE",
"EEEEEEEEEEE@@@@@@@@@@@@@@@@@@@@@$ $$$  $$$ $ $$$$$$   $$ $$$$ $$$ @@@@@@@@@@@@@@@,lBBBBBBBBBBBBm@@@@@@@@@@@@@@@@@@@@@EEEEEEEEEEE",
"EEEEEEEEEE@@@@@@@@@@@@@@@@@@@@@@$ $ $$$$ $ $$$ $  $$$$$ $$ $$$$$$$@@@@@@@@@@@@@&lBBBBBBBBBBBBBBn@@@@@@@@@@@@@@@@@@@@@@EEEEEEEEEE",
"EEEEEEEEEE@@@@@@@@@@@@@@@@@@@@@@$$ $ $$ $ $$$ $ $$ $$$$ $ $  $$$ @@@@@@@@@@@@%rBBBBBBBBBBBBBBBBn@@@@@@@@@@@@@@@@@@@@@@@EEEEEEEEE",
"EEEEEEEEE@@@@@@@@@@@@@@@@@@@@@@@ $$$ $$ $$$ $ $$$ $$  $$$ $$%&<<<<>%@@@@@@@%qNBBBBBBBBBBBBBBBBBn@@@@@@@@@@@@@@@@@@@@@@@EEEEEEEEE",
"EEEEEEEEE@@@@@@@@@@@@@@@@@@@@@@@@@@@@@@@@@@@@@@@@@@@@@@%5tbNBBBBBBBBNvu5&%qNBBBBBBBBBBBBBBBBBBBm@@@@@@@@@@@@@@@@@@@@@@@@EEEEEEEE",
"EEEEEEEE@@@@@@@@@@@@@@@@@@@@@@@@@@@@@@@@@@@@@@@@@@@@%qlBNBBBBBBBBBBBBBBBBNBBBBBBBBBBBBBBBBBBBBBm@@@@@@@@@@@@@@@@@@@@@@@@@EEEEEEE",
"EEEEEEE@@@@@@@@@@@@@@@@@@@@@@@@@@@@@@@@@@@@@@@@@@@<lBBBBBBBBBBBBBBBBBBBBBBBBBBBBBBBBBBBBBBBBBBBm@@@@@@@@@@@@@@@@@@@@@@@@@EEEEEEE",
"EEEEEEE@@@@@@@@@@@@@@@@@@@@@@@@@@@@@@@@@@@@@@@@@<lBBBBBBBBBBBBBBBBBBBBBBBBBBBBBBBBBBBBBBBBBBBBBm@@@@@@@@@@@@@@@@@@@@@@@@@XEEEEEE",
"EEEEEE.@@@@@@@@@@@@@@@@@@@@@@@@@@@@@@@@@@@@@@@%rBBBBBBBBBBBBBBBBBBBBBBBBBBBBBBBBBBBBBBBBBBBBBBBm@@@@@@@@@@@@@@@@@@@@@@@@@@EEEEEE",
"EEEEEE@@@@@@@@@@@@@@@@@@@@@@@@@@@@@@@@@@@@@@@1NBBBBBBBBBBBBBBBBBBBBBBBBBBBBBBBBBBBBBBBBBBBBBBBBm@@@@@@@@@@@@@@@@@@@@@@@@@@@EEEEE",
"EEEEEE@@@@@@@@@@@@@@@@@@@@@@@@@@@@@@@@@@@@@@rBBBBBBBBBBBBBBBBBBBBBBBBBBBBBBBBBBBBBBBBBBBBBBBBBBm@@@@@@@@@@@@@@@@@@@@@@@@@@@EEEEE",
"EEEEE%@@@@@@@@@@@@@@@@@@@@@@@@@@@@@@@@@@@@%lBBBBBBBBBBBBBBBBBBBBBBBBBBBBBBBBBBBBBBBBBBBBBBBBBBBm@@@@@@@@@@@@@@@@@@@@@@@@@@@EEEEE",
"EEEEE@@@@@@@@@@@@@@@@@@@@@@@@@@@@@@@@@@@@&nBBBBBBBBBBBBBBBBBBBBBBBBBBBBBBBBBBBBBBBBBBBBBBBBBBBBn@@@@@@@@@@@@@@@@@@@@@@@@@@@@EEEE",
"EEEE@@@@@@@@@@@@@@@@@@@@@@@@@@@@@@@@@@@@&nBBBBBBBBBBBBBBBBBBBBBBBBBBBBBBBBBBBBBBBBBBBBBBBBBBBBBn@@@@@@@@@@@@@@@@@@@@@@@@@@@@EEEE",
"EEEE@@@@@@@@@@@@@@@@@@@@@@@@@@@@@@@@@@@%vBBBBBBBBBBBBBBBBBBBBBBBBBBBBBBBBBBBBBBBBBBBBBBBBBBBBBBn@@@@@@@@@@@@@@@@@@@@@@@@@@@@@EEE",
"EEEE@@@@@@@@@@@@@@@@@@@@@@@@@@@@@@@@@@@fBBBBBBBBBBBBBBBBBBBBBBBBBBBBBBBBBBBBBBBBBBBBBBBBBBBBBBBn@@@@@@@@@@@@@@@@@@@@@@@@@@@@@EEE",
"EEE@@@@@@@@@@@@@@@@@@@@@@@@@@@@@@@@@@@qBBBBBBBBBBBBBBBBBBBBBBBBBBBBBBBBBBBBBBBBBBBBBBBBBBBBBBBBb@@@@@@@@@@@@@@@@@@@@@@@@@@@@@EEE",
"EEE@@@@@@@@@@@@@@@@@@@@@@@@@@@@@@@@@@&BBBBBBBBBBBBBBBBBBBBBBBBBBBBBBBBBBBBBBBBBBBBBBBBBBBBBBBN6@@@@@@@@@@@@@@@@@@@@@@@@@@@@@@XEE",
"EEE@@@@@@@@@@@@@@@@@@@@@@@@@@@@@@@@@@nBBBBBBBBBBBBBBBBBBBBBBBBBBBBBBBBBBBBBBBBBBBBBBBBBBBBBNq%@@@@@@@@@@@@@@@@@@@@@@@@@@@@@@@@EE",
"EE@@@@@@@@@@@@@@@@@@@@@@@@@@@@@@@@@@qBBBBBBBBBBBBBBBBBBBBBBBBBBBBBBBBBBBBBBBBBBBBBBBBBBBBNq%$$@@@@@@@@@@@@@@@@@@@@@@@@@@@@@@@@EE",
"EE@@@@@@@@@@@@@@@@@@@@@@@@@@@@@@@@@&BBBBBBBBBBBBBBBBBBBBBBBBBBBBBBBBBBBBBBBBBBBBBBBBBBBBu&@@@@@@$$$ $  $$  $ $$$@@@@@@@@@@@@@@EE",
"EE@@@@@@@@@@@@@@@@@@@@@@@@@@@@@@@@@yBBBBBBBBBBBBBBBBBBBBBBBBBBBBBBBBBBBBBBBBBBBBBBBBBBx<@@@@@@@@  $$$$$$$$$$$$  @@@@@@@@@@@@@@@E",
"EE@@@@@@@@@@@@@@@@@@@@@@@@@@@@@@@@&BBBBBBBBBBBBBBBBBBBBBBBBBBBBBBBBBBBBBBBBBBBBBBBBBx<@@@@@@@% $$$ $ $$  $$ $ $$@@@@@@@@@@@@@@XE",
"E@@@@@@@@@@@@@@@@@@@@@@@@@@@@@@@@@yBBBBBBBBBBBBBBBBBBBBBBBBBNxtqqtxNBBBBBBBBBBBBBBn<@@@@@@@&lx$$$ $$ $$  $$ $$ $@@@@@@@@@@@@@@@E",
"EX@@@@@@@@@@@@@@@@@@@@@@@@@@@@@@@@nBBBBBBBBBBBBBBBBBBBBBBBx<%@@@$$$$2xBBBBBBBBBBN6@@@@@X@%tBBB<$$$ $ $$$$$$ $ $$@@@@@@@@@@@@@@@E",
"E@@@@@@@@@@@@@@@@@@@@@@@@@@@@@@@@2BBBBBBBBBBBBBBBBBBBBBBN1@@@@@@$$ $$ 2nBBBBBBNq%@@@@@@%qNBBBBq$ $ $$$ $$ $$$ $ @@@@@@@@@@@@@@@E",
"E@@@@@@@@@@@@@@@@@@@@@@@@@@@@@@@@yBBBBBBBBBBBBBBBBBBBBBn&@@@@@@@$ $$$$ *bBBBNq%$@@@@@@wNBBBBBBn$$ $$$ $  $ $$$ $@@@@@@@@@@@@@@@@",
"E@@@@@@@@@@@@@@@@@@@@@@@@@@@@@@@@NBBBBBBBBBBBBBBBBBBBBn%@@@@@@:aa0$  $$$$xBu*$ $@@@@5nBBBBBBBBB&$$$ $ $$$$ $ $$$@@@@@@@@@@@@@@@X",
"E@@@@@@@@@@@@@@@@@@@@@@@@@@@@@@@,BBBBBBBBBBBBBBBBBBBBM&@@@@=kYRRRRPk:@@@$%<$  $$X$<lBBBBBBBBBBB6 $$ $$$  $$$ $$ $$$ $  $@@@@@@@X",
"E@@@@@@@@@@@@@@@@@@@@@@@@@@@@@@@6NBBBBBBBBBBBBBBBBBBN5@@@@9IRRRRRRRRIs@@ $$ $$$ <xBBBBBBBBBBBBBu $$ $ $$$$ $ $$   $$$$$$@@@@@@ $",
"@@@@@@@@@@@@@@@@@@@@@@@@@@@@@@@@fBBBBBBBBBBBBBBBBBBBn@@@@9YRRRRRRRRRRRs@$$$$ $&pBBBBBBBBBBBBBBBn$$$$ $ $$ $ $$$$$$ $ $$ @@@@$ $$",
"@@@@@@@@@@@@@@@@@@@@@@@@@@@@@@@@lBBBBBBBBBBBBBBBBBBB5@@@;PRRRRRRRRRRRRY:$  $%qBBBBBBBBBBBBBBBBBB$  $$$ $$ $$$  $$ $$ $$ @@@@$$$ ",
"@@@@@@@@@@@@@@@@@@@@@@@@@@@@@@@@NBBBBBBBBBBBBBBBBBBB%@@@SRRRRRRRRRRRRRRA $$$bBBBBBBBBBBBBBBBBBBB&  $$$ $$ $$$  $$$ $ $$$$$$   $$",
"X@@@@@@@@@@@@@@@@@@@@@@@@@@@@@@@BBBBBBBBBBBBBBBBBBBx@@@@YRRRRRRRRRRRRRRY-$  uBBBBBBBBBBBBBBBBBBB>$$$ $ $$ $ $$$$ $ $$$ $  $$$$$ ",
"X@@@@@@@@@@@@@@@@@@@@@@@@@@@@@@&BBBBBBBBBBBBBBBBBBBt@@@sRRRRRRRRRRRRRRRRd@XXqBBBBBBBBBBBBBBBBBBB<$$ $ $$$$ $ $$ $ $$$ $ $$ $$$$ ",
"X@@@@@@@@@@@@@@@@@@@@@@@@@@@@@@&BBBBBBBBBBBBBBBBBBBq@@@hRRRRRRRRRRRRRRRRj@XX3BBBBBBBBBBBBBBBBBBB2$$ $$$  $$$ $$ $$$ $ $$$ $$  $$",
"   $ $$$ $$$$$$  $$$$$$ $$$ $  *BBBBBBBBBBBBBBBBBBNr@@@jRRRRRRRRRRRRRRRRV@@@5BBBBBBBBBBBBBBBBBBB2$$ $$$  $$$ $$ $$$ $ $$$ $$  $$",
"@$$$$$  $$    $$$$    $$  $$$$$*BBBBBBBBBBBBBBBBBBBt@@@hRRRRRRRRRRRRRRRRj@@@5NBBBBBBBBBBBBBBBBBB<$$ $ $$$$ $ $$ $ $$$ $ $$ $$$$ ",
"X$$ $ $$$ $$$$ $$ $$$$ $$$ $ $$%BBBBBBBBBBBBBBBBBBBf@@@:RRRRRRRRRRRRRRRRa@@@rBBBBBBBBBBBBBBBBBBB<$$$ $ $$ $ $$$$ $ $$$ $  $$$$$ ",
"X$$ $$ $$$ $$ $$$$ $$ $$$ $$ $$ BBBBBBBBBBBBBBBBBBNM@@@@GRRRRRRRRRRRRRRI@@@@lBBBBBBBBBBBBBBBBBBB>  $$$ $$ $$$  $$$ $ $$$$$$   $$",
"@ $$$ $$  $$$$    $$$$  $$ $ $$$mBBBBBBBBBBBBBBBBBBt@@@@hRRRRRRRRRRRRRRh@@@&NBBBBBBBBBBBBBBBBBBB$  $$$ $$ $$$  $$ $$ $$ $  $$$$ ",
"X$$ $ $ $$$  $$$$$$  $$$ $ $$$ $fBBBBBBBBBBBBBBBBx&%@@@@@DRRRRRRRRRRRRH@@@@5BBBBBBBBBBBBBBBBBBBn$$$$ $ $$ $ $$$$$$ $ $$ $$$$$ $$",
"E$$ $$ $$$$  $$$$$$  $$$$ $$$ $ tBBBBBBBBBBBBBBx<@@@@@@@@-JRRRRRRRRRRK-@@@&MBBBBBBBBBBBBBBBBBBBx $$ $ $$$$ $ $$   $$$$$$ $$ $  $",
"E $$ $$$  $$$$    $$$$  $$$ $ $$5BBBBBBBBBBBBx<@@@@@@@@@@@@VRRRRRRRRZ=@@@@tBBBBBBBBBBBBBBBBBBBBq $$ $$$  $$$ $$ $$$ $  $ $$ $$$ ",
"E$$ $$$ $ $$$ $$$$ $$$ $$$  $$ $%NBBBBBBBBBn5@@@@@@@&yq@@@@@:jHLUFC-@@@@@6BBBBBBBBBBBBBBBBBBBBB<$$$ $ $$$$ $ $$$@@@@@@@@$$ $$$ @",
"E$$ $ $$$ $ $$ $$ $$ $ $ $$$$ $$@nBBBBBBBNq%@@@@@@%qNBBq@@@@@@@@@@@@@@@@5NBBBBBBBBBBBBBBBBBBBBN$$ $$$ $  $ $$$ $@@@@@@@@$ $$ $@X",
"E$$$ $ $$$ $  $$$$  $ $$ $$$$$  @qBBBBBNq%@@@@@@%qNBBBBBt%@@@@@@@@@@@@@tBBBBBBBBBBBBBBBBBBBBBBu$ $ $$$ $$ $$$ $ @@@@@@@@$$  @@@E",
"E$ $$$ $ $$$$$$  $$$$$$ $$   $$$@,BBBBt%@@@@@@@5NBBBBBBBBn5@@@@@@@@@@<vBBBBBBBBBBBBBBBBBBBBBBB2$$$ $ $$$$$$ $ $$@@@@@@@@ $$$@@@E",
"E  $$$ $$$   $$$$$$   $$ $$$$$$ @@xBl&@@@@@@@,nBBBBBBBBBBBBnu2>%%&2tnBBBBBBBBBBBBBBBBBBBBBBBBm$$$ $$ $$  $$ $$ $@@@@@@@@@@@@@@@E",
"EE$$ $ $ $$$$$    $$$$$ $$ $  $$@@2<@@@@@@@,lBBBBBBBBBBBBBBBBBBBBBBBBBBBBBBBBBBBBBBBBBBBBBBBBe$$$$ $ $$  $$ $ $$@@@@@@@@@@@@@@@E",
"EE$ $ $$ $$$$ $$$$ $$$$ $ $ $$ $@@@@@@@@@>lBBBBBBBBBBBBBBBBBBBBBBBBBBBBBBBBBBBBBBBBBBBBBBBBBB&@@  $$$$$$$$$$$$  @@@@@@@@@@@@@@@E",
"EE$ $$$ $$  $$ $$ $$  $$$ $$$ $$@@@@@@@&yBBBBBBBBBBBBBBBBBBBBBBBBBBBBBBBBBBBBBBBBBBBBBBBBBBBe@@@$$$ $  $$  $ $$$@@@@@@@@@@@@@@EE",
"EE@@@@@@@@@@@@@@$ $$$ $$  $$$$  @@@@$%qNBBBBBBBBBBBBBBBBBBBBBBBBBBBBBBBBBBBBBBBBBBBBBBBBBBBm&@@@@@@@@@@@@@@@@@@@@@@@@@@@@@@@@@EE",
"EEE@@@@@@@@@@@@@$ $ $$ $$$$  $$$@@@%eNBBBBBBBBBBBBBBBBBBBBBBBBBBBBBBBBBBBBBBBBBBBBBBBBBBBBB5@@@@@@@@@@@@@@@@@@@@@@@@@@@@@@@@@@EE",
"EEE@@@@@@@@@@@@@$$ $  $$$$$  $$$@@5mBBBBBBBBBBBBBBBBBBBBBBBBBBBBBBBBBBBBBBBBBBBBBBBBBBBBBBx@@@@@@@@@@@@@@@@@@@@@@@@@@@@@@@@@@@EE",
"EEE@@@@@@@@@@@@@ $$$$$$   $$$$  *vBBBBBBBBBBBBBBBBBBBBBBBBBBBBBBBBBBBBBBBBBBBBBBBBBBBBBBBm&@@@@@@@@@@@@@@@@@@@@@@@@@@@@@@@@@@EEE",
"EEEE@@@@@@@@@@@@$$   $$$$$ $$ $$iBBBBBBBBBBBBBBBBBBBBBBBBBBBBBBBBBBBBBBBBBBBBBBBBBBBBBBBB2@@@@@@@@@@@@@@@@@@@@@@@@@@@@@@@@@@@EEE",
"EEEE@@@@@@@@@@@@ $$$$$  $ $$$$ $iBBBBBBBBBBBBBBBBBBBBBBBBBBBBBBBBBBBBBBBBBBBBBBBBBBBBBBBe@@@@@@@@@@@@@@@@@@@@@@@@@@@@@@@@@@@@EEE",
"EEEE@@@@@@@@@@@@ $$$$ $$$$    $$iBBBBBBBBBBBBBBBBBBBBBBBBBBBBBBBBBBBBBBBBBBBBBBBBBBBBBBe@@@@@@@@@@@@@@@@@@@@@@@@@@@@@@@@@@@@EEEE",
"EEEEE@@@@@@@@@@@$$  $$ $ $$$$$$ iBBBBBBBBBBBBBBBBBBBBBBBBBBBBBBBBBBBBBBBBBBBBBBBBBBBBBe@@@@@@@@@@@@@@@@@@@@@@@@@@@@@@@@@@@@@EEEE",
"EEEEE@@@@@@@@@@@$$  $$ $ $$$$$$ uBBBBBBBBBBBBBBBBBBBBBBBBBBBBBBBBBBBBBBBBBBBBBBBBBBBBe@@@@@@@@@@@@@@@@@@@@@@@@@@@@@@@@@@@@@EEEEE",
"EEEEEX@@@@@@@@@@ $$$$ $$$$    $$uBBBBBBBBBBBBBBBBBBBBBBBBBBBBBBBBBBBBBBBBBBBBBBBBBBB8@@@@@@@@@@@@@@@@@@@@@@@@@@@@@@@@@@@@@@EEEEE",
"EEEEEE@@@@@@@@@@ $$$$$  $ $$$$ $uBBBBBBBBBBBBBBBBBBBBBBBBBBBBBBBBBBBBBBBBBBBBBBBBNm,@@@@@@@@@@@@@@@@@@@@@@@@@@@@@@@@@@@@@@@EEEEE",
"EEEEEEX@@@@@@@@@$$   $$$$$ $$ $$uBBBBBBBBBBBBBBBBBBBBBBBBBBBBBBBBBBBBBBBBBBBBBBBBr%.@@@@@@@@@@@@@@@@@@@@@@@@@@@@@@@@@@@@@@EEEEEE",
"EEEEEEE@@@@@@@@@ $$$$$$   $$$$  uBBBBBBBBBBBBBBBBBBBBBBBBBBBBBBBBBBBBBBBBBBBBBBx<@@@@@@@@@@@@@@@@@@@@@@@@@@@@@@@@@@@@@@@@@EEEEEE",
"EEEEEEE@@@@@@@@@$$ $  $$$$$  $$$uBBBBBBBBBBBBBBBBBBBBBBBBBBBBBBBBBBBBBBBBBBBBx<@@@@@@@@@@@@@@@@@@@@@@@@@@@@@@@@@@@@@@@@@@EEEEEEE",
"EEEEEEEE@@@@@@@@$ $ $$ $$$$  $$$uBBBBBBBBBBBBBBBBBBBBBBBBBBBBBBBBBBBBBBBBBNx<@@@@@@@@@@@@@@@@@@@@@@@@@@@@@@@@@@@@@@@@@@@@EEEEEEE",
"EEEEEEEE@@@@@@@@$ $$$ $$  $$$$$$uBBBBBBBBBBBBBBBBBBBBNqubBBBBBBBBBBBBBBNu5%@@@@@@@@@@@@@@@@@@@@@@@@@@@@@@@@@@@@@@@@@@@@@EEEEEEEE",
"EEEEEEEEE%.@@@@@@@@@@@@@@@@@@@@@uBBBBBBBBBBBBBBBBBBBt%$$ %<qrpxxxxiu82&@@@@@@@@@@@@@@@@@@@@@@@@@@@@@@@@@@@@@@@@@@@@@@@@EEEEEEEEE",
"EEEEEEEEEE.@@@@@@@@@@@@@@@@@@@@@uBBBBBBBBBBBBBBBBBi&$$$$$$$$XX@@@@@@@@@@@@@@@@@@@@@@@@@@@@@@@@@@@@@@@@@@@@@@@@@@@@@@@@@EEEEEEEEE",
"EEEEEEEEEE@@@@@@@@@@@@@@@@@@@@@@uBBBBBBBBBBBBBBBx<@@ $ $$ $ X@@@@@@@@@@@@@@@@@@@@@@@@@@@@@@@@@@@@@@@@@@@@@@@@@@@@@@@@@EEEEEEEEEE",
"EEEEEEEEEEE@@@@@@@@@@@@@@@@@@@@@uBBBBBBBBBBBBBx<@@@@$$ $$ $$XX@@@@@@@@@@@@@@@@@@@@@@@@@@@@@@@@@@@@@@@@@@@@@@@@@@@@@@@@EEEEEEEEEE",
"EEEEEEEEEEEE@@@@@@@@@@@@@@@@@@@@uBBBBBBBBBBBm<@@$  $$$ $$ $$$  $@@@@@@@@@@@@@@@@@@@@@@@@@@@@@@@@@@@@@@@@@@@@@@@@@@@@@EEEEEEEEEEE",
"EEEEEEEEEEEE@@@@@@@@@@@@@@@@@@@@uBBBBBBBBBN8@@@@$$$$ $ $$ $ $$$$@@@@@@@@@@@@@@@@@@@@@@@@@@@@@@@@@@@@@@@@@@@@@@@@@@@@EEEEEEEEEEEE",
"EEEEEEEEEEEEE@@@@@@@@@@@@@@@@@@@uBBBBBBBNe%@@@@@ $$ $ $$$$ $ $$ @@@@@@@@@@@@@@@@@@@@@@@@@@@@@@@@@@@@@@@@@@@@@@@@@@@EEEEEEEEEEEEE",
"EEEEEEEEEEEEEE@@@@@@@@@@@@@@@@@@uBBBBBNe%@@@@@@@ $$ $$$  $$$ $$ @@@@@@@@@@@@@@@@@@@@@@@@@@@@@@@@@@@@@@@@@@@@@@@@@@@EEEEEEEEEEEEE",
"EEEEEEEEEEEEEEE@@@@@@@@@@@@@@@@@uBBBBu%@@@@@@@@@$$$ $ $$$$ $ $$$@@@@@@@@@@@@@@@@@@@@@@@@@@@@@@@@@@@@@@@@@@@@@@@@@@EEEEEEEEEEEEEE",
"EEEEEEEEEEEEEEE@@@@@@@@@@@@@@@@@uBBx&@@@@@@@@@@@$ $$$ $  $ $$$ $@@@@@@@@@@@@@@@@@@@@@@@@@@@@@@@@@@@@@@@@@@@@@@@@@EEEEEEEEEEEEEEE",
"EEEEEEEEEEEEEEEE@@@@@@@@@@@@@@@@ul,@@@@@@@@@@@@@ $ $$$ $$ $$$ $ @@@@@@@@@@@@@@@@@@@@@@@@@@@@@@@@@@@@@@@@@@@@@@@@EEEEEEEEEEEEEEEE",
"EEEEEEEEEEEEEEEEE.@@@@@@@@@@@@@@&@@@@@@@@@@@@@@@$$ $ $$$$$$ $ $$@@@@@@@@@@@@@@@@@@@@@@@@@@@@@@@@@@@@@@@@@@@@@@@EEEEEEEEEEEEEEEEE",
"EEEEEEEEEEEEEEEEEE@@@@@@@@@@@@@@@@@@@@@@@@@@@@@@$ $$ $$  $$ $$ $@@@@@@@@@@@@@@@@@@@@@@@@@@@@@@@@@@@@@@@@@@@@@@EEEEEEEEEEEEEEEEEE",
"EEEEEEEEEEEEEEEEEEE@@@@@@@@@@@@@@@@@@@@@@@@@@@@@$$ $ $$  $$ $ $$@@@@@@@@@@@@@@@@@@@@@@@@@@@@@@@@@@@@@@@@@@@@@EEEEEEEEEEEEEEEEEEE",
"EEEEEEEEEEEEEEEEEEEE@@@@@@@@@@@@@@@@@@@@@@@@@@@@  $$$$$$$$$$$$  @@@@@@@@@@@@@@@@@@@@@@@@@@@@@@@@@@@@@@@@@@@@EEEEEEEEEEEEEEEEEEEE",
"EEEEEEEEEEEEEEEEEEEEE.@@@@@@@@@@@@@@@@@@@@@@@@@@$$$ $  $$  $ $$$@@@@@@@@@@@@@@@@@@@@@@@@@@@@@@@@@@@@@@@@@@@EEEEEEEEEEEEEEEEEEEEE",
"EEEEEEEEEEEEEEEEEEEEEE@@@@@@@@@@@@@@@@@@@@@@@@@@@@@@@@@@@@@@@@@@@@@@@@@@@@@@@@@@@@@@@@@@@@@@@@@@@@@@@@@@@@EEEEEEEEEEEEEEEEEEEEEE",
"EEEEEEEEEEEEEEEEEEEEEEEE@@@@@@@@@@@@@@@@@@@@@@@@@@@@@@@@@@@@@@@@@@@@@@@@@@@@@@@@@@@@@@@@@@@@@@@@@@@@@@@@@EEEEEEEEEEEEEEEEEEEEEEE",
"EEEEEEEEEEEEEEEEEEEEEEEEE%.@@@@@@@@@@@@@@@@@@@@@@@@@@@@@@@@@@@@@@@@@@@@@@@@@@@@@@@@@@@@@@@@@@@@@@@@@@@@@EEEEEEEEEEEEEEEEEEEEEEEE",
"EEEEEEEEEEEEEEEEEEEEEEEEEE.@@@@@@@@@@@@@@@@@@@@@@@@@@@@@@@@@@@@@@@@@@@@@@@@@@@@@@@@@@@@@@@@@@@@@@@@@@@EEEEEEEEEEEEEEEEEEEEEEEEEE",
"EEEEEEEEEEEEEEEEEEEEEEEEEEE@@@@@@@@@@@@@@@@@@@@@@@@@@@@@@@@@@@@@@@@@@@@@@@@@@@@@@@@@@@@@@@@@@@@@@@@@@EEEEEEEEEEEEEEEEEEEEEEEEEEE",
"EEEEEEEEEEEEEEEEEEEEEEEEEEEEE@@@@@@@@@@@@@@@@@@@@@@@@@@@@@@@@@@@@@@@@@@@@@@@@@@@@@@@@@@@@@@@@@@@@@@EEEEEEEEEEEEEEEEEEEEEEEEEEEEE",
"EEEEEEEEEEEEEEEEEEEEEEEEEEEEEEE@@@@@@@@@@@@@@@@@@@@@@@@@@@@@@@@@@@@@@@@@@@@@@@@@@@@@@@@@@@@@@@@@@@EEEEEEEEEEEEEEEEEEEEEEEEEEEEEE",
"EEEEEEEEEEEEEEEEEEEEEEEEEEEEEEEE@@@@@@@@@@@@@@@@@@@@@@@@@@@@@@@@@@@@@@@@@@@@@@@@@@@@@@@@@@@@@@@@EEEEEEEEEEEEEEEEEEEEEEEEEEEEEEEE",
"EEEEEEEEEEEEEEEEEEEEEEEEEEEEEEEEEE@@@@@@@@@@@@@@@@@@@@@@@@@@@@@@@@@@@@@@@@@@@@@@@@@@@@@@@@@@@@@EEEEEEEEEEEEEEEEEEEEEEEEEEEEEEEEE",
"EEEEEEEEEEEEEEEEEEEEEEEEEEEEEEEEEEEE@@@@@@@@@@@@@@@@@@@@@@@@@@@@@@@@@@@@@@@@@@@@@@@@@@@@@@@@@EEEEEEEEEEEEEEEEEEEEEEEEEEEEEEEEEEE",
"EEEEEEEEEEEEEEEEEEEEEEEEEEEEEEEEEEEEEE@@@@@@@@@@@@@@@@@@@@@@@@@@@@@@@@@@@@@@@@@@@@@@@@@@@@EEEEEEEEEEEEEEEEEEEEEEEEEEEEEEEEEEEEEE",
"EEEEEEEEEEEEEEEEEEEEEEEEEEEEEEEEEEEEEEEEE@@@@@@@@@@@@@@@@@@@@@@@@@@@@@@@@@@@@@@@@@@@@@@@EEEEEEEEEEEEEEEEEEEEEEEEEEEEEEEEEEEEEEEE",
"EEEEEEEEEEEEEEEEEEEEEEEEEEEEEEEEEEEEEEEEEEE@@@@@@@@@@@@@@@@@@@@@@@@@@@@@@@@@@@@@@@@@@EEEEEEEEEEEEEEEEEEEEEEEEEEEEEEEEEEEEEEEEEEE",
"EEEEEEEEEEEEEEEEEEEEEEEEEEEEEEEEEEEEEEEEEEEEEE@@@@@@@@@@@@@@@@@@@@@@@@@@@@@@@@@@@@EEEEEEEEEEEEEEEEEEEEEEEEEEEEEEEEEEEEEEEEEEEEEE",
"EEEEEEEEEEEEEEEEEEEEEEEEEEEEEEEEEEEEEEEEEEEEEEEEEE@@@@@@@@@@@@@@@@@@@@@@@@@@@@EEEEEEEEEEEEEEEEEEEEEEEEEEEEEEEEEEEEEEEEEEEEEEEEEE",
"EEEEEEEEEEEEEEEEEEEEEEEEEEEEEEEEEEEEEEEEEEEEEEEEEEEEEEEE@@@@@@@@@@@@@@@@@EEEEEEEEEEEEEEEEEEEEEEEEEEEEEEEEEEEEEEEEEEEEEEEEEEEEEEE"
};
